<svg width="18" height="18" viewBox="0 0 18 18" fill="none" xmlns="http://www.w3.org/2000/svg">
<g clip-path="url(#clip0_912_1860)">
<path d="M12.389 7.00976H15.764V3.63477" stroke="#757575" stroke-linecap="round" stroke-linejoin="round"/>
<path d="M4.62659 4.62688C5.20061 4.05202 5.88234 3.59596 6.63278 3.2848C7.38322 2.97364 8.18763 2.81348 9.00002 2.81348C9.81241 2.81348 10.6168 2.97364 11.3673 3.2848C12.1177 3.59596 12.7994 4.05202 13.3735 4.62688L15.7641 7.01048" stroke="#757575" stroke-linecap="round" stroke-linejoin="round"/>
<path d="M5.61096 10.9902H2.23596V14.3652" stroke="#757575" stroke-linecap="round" stroke-linejoin="round"/>
<path d="M13.3735 13.3738C12.7994 13.9487 12.1177 14.4047 11.3673 14.7159C10.6168 15.0271 9.81241 15.1872 9.00002 15.1872C8.18764 15.1872 7.38322 15.0271 6.63278 14.7159C5.88234 14.4047 5.20061 13.9487 4.62659 13.3738L2.23596 10.9902" stroke="#757575" stroke-linecap="round" stroke-linejoin="round"/>
</g>
<defs>
<clipPath id="clip0_912_1860">
<rect width="18" height="18" fill="white"/>
</clipPath>
</defs>
</svg>
